<?xml version="1.0" standalone="no"?>
<!DOCTYPE svg PUBLIC "-//W3C//DTD SVG 20010904//EN"
 "http://www.w3.org/TR/2001/REC-SVG-20010904/DTD/svg10.dtd">
<svg version="1.0" xmlns="http://www.w3.org/2000/svg"
 width="500.000000pt" height="500.000000pt" viewBox="0 0 500.000000 500.000000"
 preserveAspectRatio="xMidYMid meet">

<g transform="translate(0.000000,500.000000) scale(0.100000,-0.100000)"
fill="#000000" stroke="none">
<path d="M2403 4434 c-55 -20 -133 -91 -163 -147 l-24 -45 -85 -16 c-121 -24
-275 -79 -425 -152 l-129 -63 -29 24 c-56 47 -165 45 -211 -3 -31 -32 -57 -91
-57 -127 0 -14 9 -44 21 -66 l20 -41 -93 -96 c-167 -173 -303 -386 -384 -600
-30 -79 -30 -82 4 -82 15 -1 40 -7 57 -14 l30 -12 41 100 c83 201 214 402 363
553 71 73 94 90 132 100 26 7 60 24 76 37 l30 25 148 -38 c134 -35 150 -42
173 -71 34 -43 82 -63 136 -55 l42 7 94 -103 c52 -57 112 -119 133 -138 24
-22 37 -41 35 -54 -2 -13 -59 -57 -159 -126 -85 -58 -172 -118 -192 -133 -34
-27 -40 -28 -155 -28 l-120 0 -31 -48 c-17 -27 -31 -54 -31 -60 0 -9 58 -12
215 -12 l215 0 0 -25 0 -24 -260 -3 c-237 -3 -260 -2 -260 14 0 37 -12 48 -51
48 l-39 0 0 -60 0 -60 55 0 c52 0 55 -1 55 -25 0 -22 -4 -25 -35 -25 -19 0
-35 -3 -35 -6 0 -17 45 -84 57 -84 10 0 13 -40 13 -195 l0 -195 -29 0 -29 0 1
-67 2 -68 -65 -2 c-36 -1 -59 0 -52 3 17 8 15 44 -3 44 -16 0 -19 19 -16 82 2
27 -2 40 -14 44 -23 9 -28 0 -27 -53 1 -26 -3 -54 -7 -62 -6 -9 -8 8 -5 45 5
67 -3 105 -17 83 -12 -19 -11 -32 1 -24 6 3 10 1 10 -4 0 -6 -7 -11 -15 -11
-8 0 -15 -4 -15 -10 0 -5 -8 -10 -17 -10 -9 0 -30 -12 -47 -27 l-30 -28 18 28
c21 34 14 61 -14 54 -17 -4 -19 1 -22 52 -3 48 -6 56 -23 56 -18 0 -20 -8 -23
-93 -2 -68 -6 -92 -15 -89 -7 2 -11 10 -9 16 1 7 -2 10 -8 6 -5 -3 -13 1 -16
9 -3 9 -10 13 -15 10 -14 -8 -11 3 18 59 23 45 26 64 25 136 0 53 -5 87 -13
91 -6 4 -8 13 -5 19 4 6 2 11 -4 11 -6 0 -8 5 -4 12 4 6 3 8 -4 4 -7 -4 -8
-17 -1 -39 11 -40 11 -40 -1 -32 -12 7 -10 -45 2 -61 5 -7 -3 -11 -24 -11 -24
0 -39 -9 -62 -35 -17 -19 -39 -38 -49 -42 -17 -5 -16 -3 2 20 16 20 18 31 10
45 -14 27 -34 24 -55 -8 l-19 -28 -5 155 c-5 149 -6 155 -27 158 -28 4 -35
-20 -35 -122 1 -112 -25 -152 -102 -161 -44 -6 -46 -5 -43 17 2 13 0 39 -4 58
-5 21 -7 -10 -6 -80 2 -105 4 -119 29 -161 32 -55 46 -67 95 -84 21 -7 39 -20
41 -29 3 -13 -6 -16 -52 -16 -30 0 -57 -4 -60 -9 -9 -15 14 -133 46 -235 36
-114 144 -337 215 -446 27 -41 86 -118 130 -170 305 -363 732 -591 1213 -650
293 -35 649 28 935 166 107 52 131 66 275 159 145 94 361 314 476 486 69 103
175 315 213 427 33 95 65 248 55 263 -3 5 -30 9 -60 9 -47 0 -55 3 -52 17 2 9
17 20 35 25 66 17 128 109 135 198 l3 45 -45 5 c-52 6 -73 17 -64 32 4 7 2 8
-4 4 -7 -4 -20 6 -32 26 -16 27 -20 50 -20 125 0 85 -2 92 -21 98 -24 8 -38
-7 -39 -40 -1 -11 -1 -74 -1 -140 1 -113 0 -119 -15 -97 -19 26 -52 29 -61 6
-3 -9 2 -30 12 -46 17 -29 17 -30 -1 -26 -10 2 -28 18 -39 35 -12 20 -33 36
-53 42 -18 5 -42 20 -53 33 l-20 23 4 -72 c3 -53 11 -83 30 -118 29 -51 28
-54 -25 -89 l-28 -18 0 85 c0 93 -5 117 -25 117 -16 0 -25 -23 -25 -66 0 -32
-2 -34 -20 -24 -16 9 -22 8 -26 -5 -8 -20 13 -72 33 -79 8 -3 11 -11 7 -17 -5
-9 -10 -8 -18 2 -21 28 -61 49 -93 49 -27 0 -34 5 -39 25 -11 43 -29 22 -34
-41 -4 -42 -9 -59 -19 -59 -21 0 -24 -20 -6 -39 15 -15 11 -16 -54 -16 l-71 0
0 70 c0 68 -1 70 -25 70 -14 0 -25 6 -25 13 -8 236 -3 377 13 377 6 0 24 20
39 44 l27 45 -42 3 c-34 2 -42 7 -42 23 0 17 8 20 58 23 l57 3 0 59 0 60 -40
0 c-37 0 -39 -2 -46 -36 -6 -35 -8 -36 -43 -30 -20 3 -136 6 -258 6 l-223 0 0
25 0 25 215 0 c150 0 215 3 215 11 0 6 -12 33 -27 60 l-28 49 -126 0 c-116 0
-129 2 -154 23 -16 12 -101 72 -189 132 -107 73 -162 117 -164 130 -2 14 38
62 135 161 l138 141 37 -9 c48 -13 118 16 139 58 8 16 21 31 29 32 8 2 53 14
100 27 185 49 176 49 218 16 20 -16 54 -33 75 -37 31 -5 55 -23 119 -88 171
-174 334 -431 397 -628 l12 -37 34 15 c19 8 48 14 64 14 l30 0 -24 64 c-83
220 -232 452 -402 627 l-85 87 21 41 c26 49 26 84 2 137 -21 47 -59 80 -102
89 -47 11 -116 -4 -147 -30 l-28 -23 -133 65 c-159 77 -297 126 -419 149 -90
16 -90 16 -108 56 -23 51 -82 111 -136 139 -56 29 -175 35 -235 13z m209 -110
c118 -76 123 -234 11 -320 -42 -32 -128 -53 -146 -35 -5 5 -15 7 -22 5 -23 -9
-93 44 -121 91 -23 40 -26 54 -22 109 3 50 10 71 31 100 64 84 183 106 269 50z
m-399 -234 c4 -17 8 -37 10 -45 7 -32 101 -127 150 -152 44 -23 65 -27 132
-27 67 0 88 4 130 26 66 34 125 99 155 170 18 45 26 55 39 49 9 -5 22 -6 29
-4 6 3 12 0 12 -7 0 -6 4 -8 10 -5 11 7 130 -22 146 -36 6 -5 13 -6 16 -4 8 8
110 -31 237 -92 62 -30 110 -58 105 -63 -5 -4 -60 -20 -122 -34 l-114 -26 -20
25 c-60 77 -181 71 -235 -11 -11 -17 -17 -46 -17 -80 l0 -52 -106 -112 -105
-112 -33 50 c-18 28 -45 55 -62 62 -36 15 -42 58 -10 78 43 27 3 102 -55 102
-33 0 -75 -37 -75 -66 0 -13 9 -32 20 -41 31 -27 25 -57 -14 -76 -21 -10 -45
-34 -61 -61 -15 -26 -30 -46 -33 -45 -4 0 -52 49 -106 108 l-99 108 -1 62 c-1
60 -3 64 -43 102 -36 34 -49 39 -88 39 -54 0 -80 -12 -115 -51 l-25 -29 -118
29 c-65 15 -120 30 -122 33 -11 11 277 139 363 162 50 13 92 22 92 19 0 -3 6
0 14 6 7 6 21 9 30 5 9 -3 16 -1 16 4 0 9 19 16 56 21 7 0 14 -13 17 -29z
m-736 -111 l28 -11 -34 -28 -33 -28 22 -32 c12 -17 20 -33 18 -36 -3 -2 -26
-1 -52 2 -38 6 -49 12 -57 31 -14 38 -11 53 20 84 32 32 45 34 88 18z m2145
-19 c25 -26 29 -36 24 -63 -8 -41 -12 -43 -70 -52 l-49 -7 23 37 23 36 -34 29
-34 28 25 11 c41 16 60 13 92 -19z m-1594 -142 c25 -25 8 -78 -25 -78 -11 0
-11 5 -3 20 8 15 6 24 -9 39 -11 11 -17 22 -13 25 9 10 37 7 50 -6z m1010 3
c10 -6 8 -10 -8 -14 -18 -5 -22 -11 -18 -36 5 -36 -15 -43 -32 -12 -14 27 -13
37 6 55 17 18 32 20 52 7z m-504 -301 c44 -17 66 -46 66 -91 0 -41 0 -41 -22
-25 -66 47 -72 48 -119 16 -52 -35 -59 -36 -59 -10 0 42 29 90 62 105 40 17
41 17 72 5z m200 -314 c113 -76 206 -143 206 -147 0 -5 -21 -9 -47 -9 -35 0
-55 7 -82 27 -33 26 -145 100 -257 171 l-51 32 -174 -115 c-153 -102 -178
-115 -216 -115 -24 0 -43 4 -43 8 0 8 105 81 329 231 60 41 109 67 116 63 7
-4 105 -69 219 -146z m-175 -72 c19 -16 31 -35 31 -50 0 -24 -2 -24 -91 -24
-89 0 -90 0 -84 23 9 32 61 77 89 77 14 0 38 -12 55 -26z m163 -58 c22 -16 21
-16 -19 -16 -41 0 -60 11 -48 29 7 13 39 6 67 -13z m-151 -146 l37 0 4 -62 c3
-35 3 -84 0 -111 l-5 -48 -106 3 -106 3 -3 45 c-2 25 -1 73 3 107 l6 62 47 4
c26 2 56 2 67 1 11 -2 36 -4 56 -4z m-280 -10 c36 -20 19 -28 -44 -23 -40 4
-72 1 -86 -7 -31 -16 -37 -6 -12 19 23 23 106 30 142 11z m561 -7 c24 -21 23
-36 -1 -23 -26 13 -107 13 -133 -1 -29 -16 -37 0 -9 22 30 25 116 26 143 2z
m-611 -310 c0 -216 2 -253 14 -253 13 0 15 37 15 251 0 196 3 250 13 247 9 -4
13 -67 15 -261 l2 -257 -75 0 -75 0 0 259 c0 282 -2 272 58 268 l33 -2 0 -252z
m607 245 c9 -9 12 -82 12 -265 l0 -253 -80 0 -80 0 0 255 0 256 23 9 c32 13
111 12 125 -2z m-768 -38 c0 -19 -7 -20 -220 -20 -213 0 -220 1 -220 20 0 19
7 20 220 20 213 0 220 -1 220 -20z m1290 0 c0 -19 -7 -20 -219 -20 -179 0
-220 3 -224 14 -3 8 -3 17 0 20 4 3 105 6 225 6 211 0 218 -1 218 -20z m-1568
-168 c5 -97 4 -99 -57 -107 -30 -3 -59 -4 -65 0 -11 7 -14 147 -4 158 4 3 32
6 64 6 l58 -1 4 -56z m232 46 c2 -1 6 -36 10 -75 6 -67 5 -73 -13 -73 -10 0
-39 -3 -65 -6 l-46 -7 0 88 0 87 56 -5 c30 -3 57 -7 58 -9z m1040 6 c13 -5 16
-22 16 -80 0 -65 -2 -74 -19 -74 -10 0 -39 -3 -65 -6 l-46 -7 0 87 0 86 49 0
c27 0 56 -3 65 -6z m239 -1 c14 -4 17 -16 17 -79 0 -41 -3 -74 -7 -75 -5 0
-34 -3 -65 -5 l-58 -5 0 86 0 85 48 -1 c26 0 55 -3 65 -6z m-738 -118 c24 -23
25 -31 25 -134 l0 -109 -47 -4 c-27 -2 -72 -2 -100 0 l-53 4 0 90 c0 138 24
177 108 178 32 0 49 -6 67 -25z m-770 -180 l0 -70 -67 -3 -68 -3 0 76 0 76 68
-3 67 -3 0 -70z m235 1 l0 -74 -60 -1 -60 -1 0 75 0 75 60 0 60 0 0 -74z
m1050 5 c0 -78 -3 -81 -81 -81 l-49 0 0 75 0 75 65 0 65 0 0 -69z m238 -3 l-3
-73 -62 -3 -63 -3 0 76 0 75 65 0 66 0 -3 -72z m354 -142 c3 -14 1 -31 -3 -38
-6 -8 -9 1 -9 25 0 42 6 48 12 13z m-784 -3 c-3 -17 -20 -18 -203 -15 -110 1
-287 2 -392 2 -165 0 -193 2 -193 15 0 13 51 15 396 15 371 0 395 -1 392 -17z
m-1829 -70 c13 -10 -2 -12 -82 -13 -85 0 -98 2 -95 16 2 9 20 22 41 29 20 7
47 19 60 28 20 13 23 12 41 -17 10 -17 26 -36 35 -43z m2973 48 c24 -11 51
-22 61 -25 9 -3 17 -12 17 -21 0 -12 -16 -15 -96 -15 l-97 0 26 20 c14 11 29
29 32 40 8 24 5 24 57 1z m-1024 -33 c7 -7 12 -14 12 -17 0 -4 -237 -5 -526
-3 -464 2 -525 4 -514 17 11 13 83 15 514 15 377 0 505 -3 514 -12z m-1698
-13 c11 -13 8 -15 -15 -15 -23 0 -26 2 -15 15 7 8 14 15 15 15 1 0 8 -7 15
-15z m1940 -55 c15 -11 38 -24 51 -29 15 -6 -276 -10 -806 -10 l-830 0 40 20
c22 10 44 24 49 29 6 6 276 10 739 10 712 0 730 0 757 -20z m860 -170 c0 -12
11 -11 -132 -13 -125 -3 -152 -12 -132 -45 9 -14 30 -18 113 -20 90 -2 102 -5
99 -20 -2 -13 -15 -18 -51 -20 -46 -3 -48 -5 -45 -30 2 -18 10 -28 26 -32 49
-11 24 -25 -50 -28 -76 -3 -78 -3 -78 -28 0 -17 7 -28 20 -31 11 -3 20 -12 20
-19 0 -14 -5 -16 -45 -18 -17 -1 -21 -10 -26 -56 -7 -64 -26 -104 -66 -141
-56 -53 -90 -63 -203 -64 l-105 0 -5 130 -5 130 -90 0 -90 0 -5 -40 -5 -40
-77 -3 -78 -3 0 -34 0 -34 103 -3 102 -3 0 -50 0 -50 -144 -3 c-100 -2 -148 1
-158 9 -11 10 -14 38 -12 128 l1 116 -127 3 c-100 2 -126 0 -122 -10 2 -7 36
-60 76 -117 79 -117 79 -131 5 -131 -43 0 -45 2 -92 67 -26 36 -55 75 -64 87
l-17 21 -23 -23 c-18 -17 -24 -37 -28 -85 l-5 -62 -38 -3 c-62 -5 -67 5 -67
142 l0 121 -75 0 -75 0 0 -121 c0 -132 -5 -144 -56 -144 -27 0 -38 8 -70 53
-21 28 -60 82 -88 120 l-51 67 -5 -117 -5 -118 -50 0 -50 0 -5 129 -5 129 -75
-2 c-41 -1 -79 -6 -84 -11 -5 -5 -7 -59 -4 -120 5 -125 1 -133 -59 -128 l-38
3 -3 128 -3 127 -169 0 -170 0 0 -75 0 -74 93 -3 92 -3 0 -50 0 -50 -134 -3
c-90 -2 -138 1 -147 9 -11 9 -14 41 -14 133 l0 121 -67 0 c-53 0 -68 3 -71 15
-2 10 9 19 30 25 23 7 33 16 33 30 0 18 -8 20 -92 23 -74 2 -93 6 -93 17 0 12
15 15 65 15 52 0 66 4 74 18 17 32 -1 41 -94 44 -76 3 -90 6 -93 21 -3 15 5
17 55 17 62 0 76 5 86 32 4 11 0 19 -11 22 -13 4 -111 13 -174 16 -5 0 -8 5
-8 10 0 7 545 10 1615 10 1070 0 1615 -3 1615 -10z m-2382 -762 c21 -57 43
-118 46 -135 7 -31 6 -33 -18 -33 -16 0 -30 8 -37 23 -16 31 -22 33 -67 29
-30 -3 -42 -10 -51 -28 -7 -17 -19 -24 -37 -24 -24 0 -26 3 -21 28 3 15 24 75
47 135 40 101 44 107 70 107 26 0 30 -6 68 -102z m250 86 c41 -29 20 -69 -28
-51 -54 20 -103 -38 -80 -97 13 -35 52 -53 84 -38 17 7 27 7 35 -1 19 -19 12
-43 -14 -55 -109 -50 -217 78 -160 189 31 60 115 87 163 53z m199 -1 c3 -10
25 -67 49 -128 23 -60 40 -113 38 -117 -12 -18 -55 -7 -65 16 -20 42 -88 42
-108 0 -8 -18 -19 -24 -41 -24 -16 0 -30 4 -30 9 0 9 87 238 96 253 10 15 55
8 61 -9z m282 -7 c63 -33 82 -132 36 -192 -28 -36 -74 -54 -142 -54 l-43 0 0
128 c0 71 3 132 8 136 11 12 106 0 141 -18z m299 -8 c3 -28 3 -28 -57 -28 -58
0 -61 -1 -61 -25 0 -22 4 -25 40 -25 36 0 40 -2 40 -25 0 -22 -4 -25 -40 -25
-33 0 -40 -3 -40 -20 0 -16 8 -19 58 -22 56 -3 57 -3 60 -35 l3 -33 -90 0 -91
0 0 128 c0 71 3 132 7 136 4 4 43 5 88 4 79 -3 80 -3 83 -30z m157 -5 c9 -21
23 -55 33 -76 l17 -39 27 69 c29 76 43 89 82 79 l27 -7 -3 -127 -3 -127 -30 0
c-29 0 -30 1 -36 60 -3 33 -6 54 -7 47 -4 -32 -46 -112 -58 -112 -8 0 -27 28
-43 63 l-29 62 -1 -50 c-2 -61 -11 -78 -42 -73 -24 3 -24 5 -27 122 -1 66 0
126 2 133 3 7 21 13 41 13 31 0 37 -4 50 -37z m322 -8 c15 -25 31 -45 34 -45
3 0 19 20 37 45 30 43 53 54 79 37 9 -6 -2 -29 -37 -82 -44 -66 -50 -81 -50
-127 0 -52 0 -53 -30 -53 -29 0 -30 1 -30 50 0 53 -13 86 -62 158 -32 46 -30
62 7 62 17 0 31 -13 52 -45z"/>
<path d="M2146 4075 c-11 -8 -15 -15 -9 -15 6 0 16 7 23 15 16 19 11 19 -14 0z"/>
<path d="M2742 2618 c-1 -124 2 -198 8 -198 6 0 7 18 3 47 -4 34 -3 44 5 39 8
-5 12 5 12 31 0 28 -3 34 -10 23 -6 -10 -10 30 -12 120 -3 113 -4 103 -6 -62z"/>
<path d="M2210 1651 c0 -5 5 -13 10 -16 6 -3 10 -2 10 4 0 5 -4 13 -10 16 -5
3 -10 2 -10 -4z"/>
<path d="M3574 1634 c-3 -11 -4 -45 -2 -75 3 -48 6 -54 26 -57 58 -8 121 44
129 106 l5 40 -76 4 c-71 3 -77 1 -82 -18z"/>
<path d="M1660 1181 c0 -5 -3 -16 -6 -25 -4 -12 0 -16 15 -16 22 0 25 8 15 34
-7 17 -24 22 -24 7z"/>
<path d="M2141 1170 c-9 -28 -8 -30 14 -30 22 0 23 2 14 30 -6 17 -12 30 -14
30 -2 0 -8 -13 -14 -30z"/>
<path d="M2380 1165 l0 -65 29 0 c33 0 61 30 61 65 0 35 -28 65 -61 65 l-29 0
0 -65z"/>
<path d="M779 2935 c-32 -17 -46 -44 -21 -41 9 2 17 9 17 17 0 8 8 13 17 11 9
-1 19 2 23 8 4 6 24 8 48 4 31 -4 38 -3 27 5 -21 15 -80 13 -111 -4z"/>
<path d="M4130 2941 c0 -5 17 -9 38 -9 20 0 48 -3 62 -7 l25 -6 -25 15 c-27
17 -100 22 -100 7z"/>
<path d="M4101 2927 c-10 -13 -8 -16 9 -22 28 -9 33 -3 17 19 -12 16 -15 16
-26 3z"/>
<path d="M790 2906 c0 -2 9 -6 20 -9 11 -3 18 -1 14 4 -5 9 -34 13 -34 5z"/>
<path d="M4240 2906 c0 -2 7 -7 16 -10 8 -3 12 -2 9 4 -6 10 -25 14 -25 6z"/>
<path d="M4123 2889 c-18 -5 -33 -12 -33 -14 0 -8 53 6 65 16 10 10 11 10 -32
-2z"/>
<path d="M791 2808 c-26 -7 -31 -12 -20 -19 13 -8 12 -10 -11 -13 -15 -2 -43
-46 -30 -46 7 0 14 9 17 19 5 20 18 22 42 7 9 -6 12 -5 7 2 -3 6 2 16 11 22
16 10 16 11 1 6 -10 -3 -20 0 -24 7 -4 7 -4 9 0 5 4 -3 20 -2 36 4 20 7 35 6
50 -2 15 -8 20 -8 16 -1 -4 6 0 11 9 11 9 0 14 -4 11 -9 -3 -5 2 -15 11 -22
12 -10 14 -10 9 -1 -4 7 -2 12 6 12 7 0 4 6 -7 13 -24 17 -87 19 -134 5z"/>
<path d="M4085 2810 c-31 -12 -45 -33 -35 -50 8 -13 10 -12 10 3 0 9 8 17 18
17 14 0 15 2 2 10 -13 8 -13 10 3 11 58 5 117 3 117 -3 0 -5 10 -8 23 -8 22 1
22 1 -3 15 -27 16 -103 19 -135 5z"/>
<path d="M4256 2777 c3 -10 9 -15 12 -12 3 3 0 11 -7 18 -10 9 -11 8 -5 -6z"/>
<path d="M4026 2745 c-9 -26 -7 -32 5 -12 6 10 9 21 6 23 -2 3 -7 -2 -11 -11z"/>
<path d="M992 2700 c0 -14 2 -19 5 -12 2 6 2 18 0 25 -3 6 -5 1 -5 -13z"/>
<path d="M1406 2705 c-3 -9 -6 -32 -6 -51 0 -28 4 -34 21 -34 18 0 20 5 17 47
-3 47 -20 67 -32 38z"/>
<path d="M3620 2585 c0 -58 4 -105 9 -105 37 0 41 12 41 111 0 99 0 99 -25 99
l-25 0 0 -105z"/>
<path d="M1033 2649 c-18 -5 -33 -14 -33 -19 0 -5 7 -6 17 -3 12 5 14 3 8 -7
-5 -9 -4 -11 4 -6 6 4 9 12 6 17 -6 9 15 13 44 10 7 -2 10 2 6 8 -7 13 -9 13
-52 0z"/>
<path d="M1106 2649 c4 -7 44 0 44 7 0 2 -11 3 -24 2 -14 -1 -23 -5 -20 -9z"/>
<path d="M3835 2646 c-26 -11 -27 -13 -10 -20 11 -4 16 -4 12 0 -4 4 5 13 20
20 16 7 24 13 18 13 -5 0 -23 -6 -40 -13z"/>
<path d="M3927 2639 c-3 -12 -3 -18 0 -15 4 3 13 0 21 -7 13 -10 14 -9 8 1 -6
9 -1 11 18 8 35 -6 43 12 11 24 -39 15 -52 12 -58 -11z"/>
<path d="M4043 2633 c4 -3 1 -13 -6 -22 -10 -14 -10 -14 4 -4 9 7 20 9 25 5 4
-4 2 1 -5 11 -7 9 -16 17 -19 17 -3 0 -2 -3 1 -7z"/>
<path d="M688 2623 c7 -3 16 -2 19 1 4 3 -2 6 -13 5 -11 0 -14 -3 -6 -6z"/>
<path d="M1330 2598 c0 -18 5 -40 10 -48 7 -11 10 -2 10 33 0 26 -4 47 -10 47
-5 0 -10 -15 -10 -32z"/>
<path d="M4297 2623 c-8 -7 11 -33 24 -33 5 0 9 9 9 20 0 19 -20 27 -33 13z"/>
<path d="M716 2612 c-3 -5 1 -9 9 -9 8 0 12 4 9 9 -3 4 -7 8 -9 8 -2 0 -6 -4
-9 -8z"/>
<path d="M3560 2580 c0 -22 5 -40 10 -40 6 0 10 18 10 40 0 22 -4 40 -10 40
-5 0 -10 -18 -10 -40z"/>
<path d="M1394 2558 c3 -13 6 -29 6 -35 0 -7 7 -13 15 -13 8 0 15 5 15 10 0 6
11 10 25 10 20 0 25 5 25 25 0 23 -4 25 -46 25 -43 0 -46 -2 -40 -22z"/>
<path d="M1193 2546 c-3 -5 -1 -6 5 -2 5 3 13 0 15 -6 4 -10 6 -10 6 0 1 6 6
12 12 12 5 0 7 -5 3 -12 -4 -7 -3 -8 5 -4 6 4 9 11 6 16 -7 11 -45 8 -52 -4z"/>
<path d="M1306 2401 c-3 -5 1 -11 9 -14 9 -4 12 -1 8 9 -6 16 -10 17 -17 5z"/>
<path d="M1336 2398 c3 -5 10 -6 15 -3 13 9 11 12 -6 12 -8 0 -12 -4 -9 -9z"/>
<path d="M1455 2250 c3 -5 8 -10 11 -10 2 0 4 5 4 10 0 6 -5 10 -11 10 -5 0
-7 -4 -4 -10z"/>
</g>
</svg>
